<?xml version="1.0" encoding="UTF-8"?>
<svg width="40px" height="38px" viewBox="0 0 40 38" version="1.1" xmlns="http://www.w3.org/2000/svg" xmlns:xlink="http://www.w3.org/1999/xlink" xmlns:sketch="http://www.bohemiancoding.com/sketch/ns">
    <!-- Generator: Sketch 3.5.1 (25234) - http://www.bohemiancoding.com/sketch -->
    <title>cart</title>
    <desc>Created with Sketch.</desc>
    <defs></defs>
    <g id="Welcome" stroke="none" stroke-width="1" fill="none" fill-rule="evenodd" sketch:type="MSPage">
        <g id="Desktop-HD" sketch:type="MSArtboardGroup" transform="translate(-1368.000000, -45.000000)" fill="#000000">
            <g id="header" sketch:type="MSLayerGroup" transform="translate(33.000000, 30.000000)">
                <g id="cart" transform="translate(1335.000000, 15.000000)" sketch:type="MSShapeGroup">
                    <g id="Layer_1">
                        <g id="Group">
                            <path d="M12.1507368,28.812 C20.3077895,28.9231515 28.4126316,28.785697 36.7225263,28.8917576 C36.8058947,29.6341818 36.8690526,30.1924848 36.9435789,30.8585455 C36.3107368,30.9548485 35.9098947,31.0672727 35.5086316,31.0681212 C30.1077895,31.0812727 24.7065263,31.0787273 19.3052632,31.0795758 C17.2711579,31.08 15.2366316,31.1003636 13.2025263,31.0719394 C11.2467368,31.0447879 10.2004211,30.3727879 9.73052632,28.9231515 C9.20968421,27.3152727 9.66778947,25.5703636 10.9351579,24.4864242 C11.3583158,24.1245455 11.8467368,23.8407273 12.4345263,23.4309091 C12.0130526,22.19 11.6037895,20.9363636 11.1621053,19.6941818 C9.48294737,14.9744848 7.76294737,10.2687879 6.12842105,5.53339394 C5.71452632,4.33448485 5.04252632,3.65654545 3.81978947,3.37187879 C2.60547368,3.08890909 1.42652632,2.65236364 0.0223157895,2.21793939 C0.245052632,1.51072727 0.417263158,0.962606061 0.658105263,0.198545455 C2.90947368,0.849757576 4.97473684,1.44709091 7.13389474,2.072 C7.81936842,3.89072727 8.48463158,5.65515152 9.23242105,7.64018182 L11.7237895,7.64018182 C20.0711579,7.64018182 28.4189474,7.63212121 36.7658947,7.65163636 C37.6362105,7.65333333 38.5065263,7.81454545 39.6311579,7.92739394 C38.6753684,13.1006061 37.7709474,17.9984848 36.8715789,22.8683636 C36.0766316,23.7384848 35.0736842,23.7138788 34.1090526,23.7826061 C27.7549474,24.2365455 21.3995789,24.6769091 15.0458947,25.1393333 C12.6378947,25.3158182 11.7461053,26.2945455 12.1507368,28.812 L12.1507368,28.812 Z M37.0012632,10.0061818 L10.0458947,10.0061818 C11.6206316,14.418303 13.12,18.62 14.672,22.9684848 C21.4757895,22.4441212 28.0804211,21.9350303 34.8707368,21.4119394 C35.5827368,17.6009697 36.2753684,13.8913939 37.0012632,10.0061818 L37.0012632,10.0061818 Z" id="Shape"></path>
                            <path d="M16.8555789,37.8615152 C14.9292632,37.8564242 13.7806316,36.6596364 13.7941053,34.6703636 C13.8058947,32.9330909 15.0989474,31.5933333 16.8008421,31.5551515 C18.5098947,31.5169697 20.0395789,33.0090303 20.0618947,34.7344242 C20.0846316,36.5183636 18.7023158,37.8661818 16.8555789,37.8615152 L16.8555789,37.8615152 Z" id="Shape"></path>
                            <path d="M30.3313684,37.8615152 C28.4046316,37.857697 27.2555789,36.6617576 27.2682105,34.6724848 C27.2787368,32.9343636 28.5701053,31.5946061 30.2724211,31.5547273 C31.9806316,31.5148485 33.5136842,33.0073333 33.536,34.7314545 C33.5587368,36.5153939 32.1768421,37.8653333 30.3313684,37.8615152 L30.3313684,37.8615152 Z" id="Shape"></path>
                        </g>
                    </g>
                </g>
            </g>
        </g>
    </g>
</svg>